<svg xmlns="http://www.w3.org/2000/svg" width="1385.333" height="1365.333" viewBox="0 0 1039 1024">
<path fill="#c9c7bb37" d="M121.2 70.1c-2.6 1.3-5.5 3.9-7 6.2l-2.7 4.1-.3 153.8L111 388l-25.5.2-25.4.3 29.5 38c16.2 20.9 35.3 45.4 42.3 54.5s20.7 26.6 30.2 39c9.6 12.4 22.1 28.5 27.8 35.8 5.6 7.3 10.6 13 11.1 12.7s6-7.2 12.2-15.3C230.5 530.8 302 438.5 322.7 412l18.3-23.5-25.5-.3-25.6-.2.3-52.3c.3-50.6.4-52.4 2.5-57.9 6.7-17.8 19.9-29.7 37.8-34.3 5.2-1.3 28.9-1.5 194-1.5 206 0 194-.3 206.4 5.9 11.8 6 21 16.7 25.9 30.3l2.7 7.3.5 39.5.5 39.4 7.1-8.9c6.7-8.6 23-29.6 63.3-81.8 10.1-13.1 18.5-23.6 18.6-23.5.1.2 11 14.2 24.2 31.3 55 71.2 63.4 82 64.3 82.3.7.3.9-48.2.8-141-.3-129.5-.4-141.6-2-144.3-2.2-4-6.6-8.1-10.1-9.4-2-.8-122.4-1.1-402-1.1H125.5zM839.5 456.8c-5 6.4-26.1 33.7-47 60.7-20.8 26.9-43.3 56-49.9 64.5s-16.9 21.8-22.9 29.5l-10.9 14 25.6.3 25.6.2v48.3c0 53.3-.4 56.8-6.2 68.7-6.2 12.7-20.7 24.1-34.9 27.5-9.3 2.2-376.7 2.2-387 .1-17.8-3.8-32.7-17.3-39.3-35.5-1.9-5.2-2.1-8.6-2.6-45.7l-.5-40.1-24 31c-56.1 72.4-64.3 82.9-64.8 83.1-.5.1-15.4-18.9-66.6-85.2l-22.6-29.4-.3 139.7c-.1 94.9.1 141 .8 143.6 1.3 4.8 6.4 10.7 10.7 12.5 4.8 2.1 799.8 2.1 804.6 0 4.3-1.7 9.3-7.6 10.6-12.3.8-2.6 1.1-52.6 1.1-155.1V626h25c13.8 0 25-.3 25-.8 0-.4-11.5-15.6-25.6-33.7-14.1-18.2-35.8-46.3-48.4-62.5-56.8-73.4-64.6-83.4-65.5-83.7-.6-.1-5.1 5-10 11.5"/></svg>